<?xml version="1.0" encoding="UTF-8"?>
<svg width="29px" height="29px" viewBox="0 0 29 29" version="1.1" xmlns="http://www.w3.org/2000/svg" xmlns:xlink="http://www.w3.org/1999/xlink">
    <title>account code</title>
    <defs>
        <polygon id="path-1" points="0 28.8008 28.804 28.8008 28.804 -0.0002 0 -0.0002"></polygon>
    </defs>
    <g id="Menu" stroke="none" stroke-width="1" fill="#FFFFFF" fill-rule="evenodd">
        <g id="Your-promo-code" transform="translate(-243.000000, -134.000000)">
            <g id="account-code" transform="translate(243.000000, 134.000000)">
                <path d="M23.9067,22.2993 L27.2167,25.6103 C27.6587,26.0523 27.6587,26.7723 27.2167,27.2143 C26.7887,27.6413 26.0407,27.6423 25.6117,27.2143 L22.3017,23.9033 L18.9917,27.2143 C18.5627,27.6433 17.8147,27.6413 17.3867,27.2143 C16.9447,26.7723 16.9447,26.0523 17.3867,25.6103 L25.6117,17.3853 C26.0407,16.9573 26.7887,16.9573 27.2167,17.3853 C27.4307,17.6003 27.5487,17.8843 27.5487,18.1873 C27.5487,18.4893 27.4307,18.7753 27.2167,18.9893 L23.9067,22.2993 Z M28.4567,18.1873 C28.4567,17.6423 28.2437,17.1293 27.8587,16.7433 C27.0877,15.9723 25.7397,15.9723 24.9697,16.7433 L16.7447,24.9683 C15.9497,25.7643 15.9497,27.0603 16.7447,27.8563 C17.5157,28.6273 18.8637,28.6273 19.6337,27.8563 L22.3017,25.1883 L24.9697,27.8563 C25.3547,28.2413 25.8677,28.4543 26.4137,28.4543 C26.9597,28.4543 27.4727,28.2413 27.8587,27.8563 C28.6537,27.0603 28.6537,25.7643 27.8587,24.9683 L25.1897,22.2993 L27.8587,19.6313 C28.2437,19.2453 28.4567,18.7333 28.4567,18.1873 L28.4567,18.1873 Z" id="Fill-1" fill="#FFFFFF"></path>
                <path d="M18.2061,17.065 C18.5111,17.065 18.7981,17.183 19.0141,17.399 L20.8621,19.248 L19.2471,20.863 L17.3981,19.015 C17.1831,18.799 17.0641,18.512 17.0641,18.208 C17.0641,17.902 17.1831,17.615 17.3981,17.399 C17.6141,17.183 17.9011,17.065 18.2061,17.065 L18.2061,17.065 Z M19.2471,22.147 L22.1461,19.248 L19.6561,16.757 C18.8811,15.982 17.5311,15.982 16.7561,16.757 C15.9571,17.557 15.9571,18.857 16.7561,19.657 L19.2471,22.147 Z" id="Fill-3" fill="#FFFFFF"></path>
                <mask id="mask-2" fill="#FFFFFF">
                    <use xlink:href="#path-1"></use>
                </mask>
                <g id="Clip-6"></g>
                <path d="M16.851,11.9538 L27.896,11.9538 L27.896,0.9088 L16.851,0.9088 L16.851,11.9538 Z M15.943,12.8618 L28.803,12.8618 L28.803,0.0008 L15.943,0.0008 L15.943,12.8618 Z" id="Fill-5" fill="#FFFFFF" mask="url(#mask-2)"></path>
                <path d="M21.574,7.1588 L23.029,7.1588 L23.029,5.7038 L21.574,5.7038 L21.574,7.1588 Z M20.667,8.0658 L23.938,8.0658 L23.938,4.7958 L20.667,4.7958 L20.667,8.0658 Z" id="Fill-7" fill="#FFFFFF" mask="url(#mask-2)"></path>
                <path d="M0.908,11.9538 L11.953,11.9538 L11.953,0.9088 L0.908,0.9088 L0.908,11.9538 Z M0,12.8618 L12.86,12.8618 L12.86,0.0008 L0,0.0008 L0,12.8618 Z" id="Fill-8" fill="#FFFFFF" mask="url(#mask-2)"></path>
                <path d="M5.631,7.1588 L7.086,7.1588 L7.086,5.7038 L5.631,5.7038 L5.631,7.1588 Z M4.724,8.0668 L7.994,8.0668 L7.994,4.7968 L4.724,4.7968 L4.724,8.0668 Z" id="Fill-9" fill="#FFFFFF" mask="url(#mask-2)"></path>
                <path d="M0.908,27.8938 L11.953,27.8938 L11.953,16.8488 L0.908,16.8488 L0.908,27.8938 Z M0,28.8008 L12.86,28.8008 L12.86,15.9408 L0,15.9408 L0,28.8008 Z" id="Fill-10" fill="#FFFFFF" mask="url(#mask-2)"></path>
                <path d="M5.631,23.0988 L7.086,23.0988 L7.086,21.6438 L5.631,21.6438 L5.631,23.0988 Z M4.724,24.0068 L7.994,24.0068 L7.994,20.7368 L4.724,20.7368 L4.724,24.0068 Z" id="Fill-11" fill="#FFFFFF" mask="url(#mask-2)"></path>
            </g>
        </g>
    </g>
</svg>